<svg width="35" height="22" viewBox="0 0 35 22" fill="none" xmlns="http://www.w3.org/2000/svg">
<path d="M35 9.42857H31.8182V6.28571H28.6364V9.42857H25.4545V12.5714H28.6364V15.7143H31.8182V12.5714H35V9.42857ZM11.1364 9.42857V13.2H17.5C17.1818 14.7714 15.5909 17.9143 11.1364 17.9143C7.31818 17.9143 4.29545 14.7714 4.29545 11C4.29545 7.22857 7.31818 4.08571 11.1364 4.08571C13.3636 4.08571 14.7955 5.02857 15.5909 5.81429L18.6136 2.98571C16.7045 1.1 14.1591 0 11.1364 0C4.93182 0 0 4.87143 0 11C0 17.1286 4.93182 22 11.1364 22C17.5 22 21.7955 17.6 21.7955 11.3143C21.7955 10.5286 21.7955 10.0571 21.6364 9.42857H11.1364Z" fill="#324376"/>
</svg>
